<?xml version="1.0" encoding="UTF-8" standalone="no"?>
<!DOCTYPE svg PUBLIC "-//W3C//DTD SVG 1.1//EN" "http://www.w3.org/Graphics/SVG/1.1/DTD/svg11.dtd">
<svg width="100%" height="100%" viewBox="0 0 1914 675" version="1.1" xmlns="http://www.w3.org/2000/svg" xmlns:xlink="http://www.w3.org/1999/xlink" xml:space="preserve" xmlns:serif="http://www.serif.com/" style="fill-rule:evenodd;clip-rule:evenodd;stroke-linejoin:round;stroke-miterlimit:2;">
    <g transform="matrix(4.16667,0,0,4.16667,0,-3.33335)">
        <path d="M155.059,31.035C155.059,23.815 152.252,16.964 147.61,11.712C147.521,11.608 147.44,11.52 147.36,11.434C145.571,13.404 144.128,15.829 143.08,18.635C143.164,18.835 143.244,19.033 143.299,19.195C145.182,23.821 146.143,28.887 146.143,33.385C146.143,48.057 138.684,58.27 126.852,58.27C112.99,58.27 105.856,41.654 105.856,29.332C105.856,14.663 113.314,4.448 125.148,4.448C129.932,4.448 133.913,6.428 137.077,9.526C137.224,9.675 137.365,9.834 137.454,9.934C138.637,8.632 139.944,7.435 141.359,6.358C141.27,6.291 141.122,6.188 140.885,6.04C136.584,3.407 131.55,1.855 126.121,1.855C108.37,1.855 96.941,16.85 96.941,31.683C96.941,47.084 109.668,60.864 125.877,60.864C143.63,60.864 155.059,45.868 155.059,31.035Z" style="fill:white;fill-rule:nonzero;"/>
    </g>
    <g transform="matrix(4.16667,0,0,4.16667,0,-103.333)">
        <path d="M14.565,109.794L13.953,109.794C13.884,108.569 13.953,107.752 12.137,107.752L8.688,107.752L8.688,120.436C8.688,122.024 9.551,122.047 10.753,122.07L10.753,122.659C9.664,122.659 8.688,122.614 7.69,122.614C6.601,122.614 5.535,122.637 4.4,122.659L4.4,122.07C5.603,122.047 6.465,122.024 6.465,120.436L6.465,107.752L3.493,107.752C1.451,107.752 1.36,108.32 0.974,109.794L0.384,109.794L0.634,106.187L1.087,106.187C1.337,106.799 1.95,106.821 2.517,106.821L12.818,106.821C13.635,106.821 14.202,106.617 14.293,106.187L14.77,106.187L14.565,109.794Z" style="fill:white;fill-rule:nonzero;"/>
        <path d="M30.922,113.991L30.922,109.045C30.922,107.457 30.06,107.435 28.858,107.412L28.858,106.821C30.06,106.845 31.127,106.867 32.216,106.867C33.191,106.867 34.19,106.821 35.211,106.821L35.211,107.412C34.008,107.435 33.146,107.457 33.146,109.045L33.146,120.436C33.146,122.024 34.008,122.047 35.211,122.07L35.211,122.659C34.19,122.637 33.169,122.614 32.147,122.614C31.081,122.614 30.038,122.637 28.858,122.659L28.858,122.07C30.06,122.047 30.922,122.024 30.922,120.436L30.922,114.922L21.756,114.922L21.756,120.436C21.756,122.024 22.618,122.047 23.82,122.07L23.82,122.659C22.731,122.659 21.756,122.614 20.757,122.614C19.668,122.614 18.602,122.637 17.467,122.659L17.467,122.07C18.67,122.047 19.532,122.024 19.532,120.436L19.532,109.045C19.532,107.457 18.67,107.435 17.467,107.412L17.467,106.821C18.534,106.845 19.578,106.867 20.599,106.867C21.642,106.867 22.686,106.845 23.82,106.821L23.82,107.412C22.618,107.435 21.756,107.457 21.756,109.045L21.756,113.991L30.922,113.991Z" style="fill:white;fill-rule:nonzero;"/>
        <path d="M42.65,113.991L45.646,113.991C47.483,113.991 47.483,112.563 47.552,112.04L48.005,112.04C47.96,112.539 47.915,113.765 47.915,114.582C47.915,115.308 48.028,116.374 48.005,117.101L47.552,117.101C47.552,114.922 46.826,114.922 45.079,114.922L42.65,114.922L42.65,118.779C42.65,121.298 42.741,121.934 44.988,121.934L46.395,121.934C48.618,121.82 49.616,121.525 50.502,119.097L51.046,119.188C50.683,120.322 50.342,121.48 50.116,122.659C47.847,122.659 45.578,122.614 43.309,122.614C41.629,122.614 39.951,122.614 38.272,122.659L38.272,122.07C40.246,122.07 40.427,121.706 40.427,119.505L40.427,109.431C40.427,107.571 40.064,107.48 38.272,107.412L38.272,106.821C39.792,106.867 41.335,106.867 42.855,106.867C45.033,106.867 47.189,106.867 49.39,106.821L49.39,110.202L48.936,110.317C48.595,108.183 47.574,107.548 45.305,107.548L42.65,107.548L42.65,113.991Z" style="fill:white;fill-rule:nonzero;"/>
        <path d="M66.314,120.436C66.314,122.024 67.176,122.047 68.378,122.07L68.378,122.659C67.244,122.637 66.2,122.614 65.157,122.614C64.135,122.614 63.092,122.637 61.935,122.659L61.935,122.07C63.909,122.07 64.09,121.706 64.09,119.505L64.09,109.431C64.09,107.571 63.727,107.48 61.935,107.412L61.935,106.821C63.545,106.821 65.202,106.867 66.858,106.867C68.923,106.867 71.01,106.867 73.03,106.821L73.166,110.021L72.644,110.112C72.418,108.183 71.464,107.548 68.991,107.548L66.314,107.548L66.314,113.991L68.991,113.991C70.852,113.991 71.01,113.72 71.306,112.109L71.827,112.109C71.782,112.539 71.737,113.765 71.737,114.582C71.737,115.308 71.782,116.374 71.827,116.987L71.374,116.987C71.101,115.421 71.079,114.922 69.082,114.922L66.314,114.922L66.314,120.436Z" style="fill:white;fill-rule:nonzero;"/>
        <path d="M79.542,115.784L84.216,115.784L81.789,109.113L81.743,109.113L79.542,115.784ZM87.257,118.144C87.574,119.029 88.187,120.957 88.55,121.457C88.89,121.91 89.571,122.07 90.297,122.07L90.297,122.659C89.435,122.659 88.55,122.614 87.688,122.614C86.576,122.614 85.487,122.637 84.375,122.659L84.375,122.07L84.784,122.07C85.351,122.07 86.031,121.956 86.031,121.321C86.031,121.071 85.85,120.436 85.691,120.005L84.557,116.715L79.225,116.715L78.725,118.303C78.43,119.256 78.113,120.3 78.113,121.003C78.113,122.07 78.861,122.024 79.656,122.07L80.177,122.07L80.177,122.659C79.293,122.659 78.385,122.614 77.5,122.614C76.592,122.614 75.662,122.637 74.754,122.659L74.754,122.07C76.139,121.91 76.388,121.729 76.956,120.458C77.318,119.642 77.591,118.757 77.886,117.917L80.79,109.817C80.972,109.295 81.267,108.455 81.267,107.775C81.267,107.548 81.267,107.366 81.221,107.185C81.698,106.958 82.22,106.708 82.537,106.187L82.923,106.187L87.257,118.144Z" style="fill:white;fill-rule:nonzero;"/>
        <path d="M103.886,119.551C105.928,115.308 108.129,111.133 110.013,106.821C110.625,106.845 111.261,106.867 111.873,106.867C112.531,106.867 113.212,106.821 113.87,106.821L113.87,107.412C113.099,107.412 112.577,107.457 112.282,107.684C111.987,107.911 111.851,108.297 111.851,109.045C111.851,112.63 112.055,116.443 112.146,119.868C112.191,121.571 112.35,122.07 114.619,122.07L114.619,122.659C113.371,122.659 112.123,122.614 110.875,122.614C109.763,122.614 108.674,122.637 107.562,122.659L107.562,122.07C108.356,122.07 108.923,122.07 109.309,121.865C109.718,121.638 109.899,121.207 109.899,120.322L109.74,109.499L109.695,109.499L104.34,120.617C104.09,121.162 103.637,122.274 103.455,122.863L103.001,122.863C101.073,118.529 98.894,114.287 96.739,109.998L96.693,109.998L96.512,118.212C96.512,118.507 96.489,119.324 96.489,119.642C96.489,120.753 96.603,121.366 96.965,121.684C97.329,122.001 97.896,122.07 98.803,122.07L98.803,122.659C97.873,122.659 96.92,122.614 95.99,122.614C94.992,122.614 93.97,122.637 92.972,122.659L92.972,122.07C94.583,122.07 95.582,121.684 95.672,118.644C95.763,115.534 95.922,112.449 95.922,109.34C95.922,108.546 95.808,108.047 95.491,107.775C95.173,107.502 94.674,107.412 93.925,107.412L93.925,106.821C94.719,106.845 95.536,106.867 96.33,106.867C96.807,106.867 97.306,106.821 97.782,106.821L103.886,119.551Z" style="fill:white;fill-rule:nonzero;"/>
        <path d="M119.54,109.045C119.54,107.457 118.678,107.435 117.475,107.412L117.475,106.821C118.542,106.845 119.585,106.867 120.606,106.867C121.65,106.867 122.694,106.845 123.828,106.821L123.828,107.412C122.626,107.435 121.764,107.457 121.764,109.045L121.764,120.436C121.764,122.024 122.626,122.047 123.828,122.07L123.828,122.659C122.739,122.659 121.764,122.614 120.765,122.614C119.676,122.614 118.61,122.637 117.475,122.659L117.475,122.07C118.678,122.047 119.54,122.024 119.54,120.436L119.54,109.045Z" style="fill:white;fill-rule:nonzero;"/>
        <path d="M138.757,122.659C136.828,122.614 134.922,122.614 132.994,122.614C130.974,122.614 128.978,122.614 126.981,122.659L126.981,122.07C128.115,122.138 129.046,121.843 129.046,120.549L129.046,109.045C129.046,107.457 128.184,107.435 126.981,107.412L126.981,106.821C128.047,106.845 129.091,106.867 130.112,106.867C131.156,106.867 132.2,106.845 133.334,106.821L133.334,107.412C132.131,107.435 131.269,107.457 131.269,109.045L131.269,119.551C131.269,121.23 131.632,121.934 134.854,121.934C137.486,121.934 138.394,121.298 139.097,119.097L139.597,119.188L138.757,122.659Z" style="fill:white;fill-rule:nonzero;"/>
        <path d="M148.879,120.436C148.879,122.024 149.741,122.047 150.943,122.07L150.943,122.659C149.809,122.637 148.765,122.614 147.722,122.614C146.701,122.614 145.657,122.637 144.59,122.659L144.59,122.07C145.793,122.047 146.655,122.024 146.655,120.436L146.655,114.945L141.913,108.41C141.255,107.48 141.142,107.526 139.803,107.412L139.803,106.821C140.234,106.845 141.913,106.867 142.957,106.867C143.887,106.867 144.794,106.821 145.725,106.821L145.725,107.412C145.362,107.412 144.454,107.412 144.454,107.888C144.454,108.16 144.772,108.683 145.203,109.295L148.379,113.765L151.352,109.703C151.624,109.318 152.237,108.592 152.237,108.07C152.237,107.412 151.783,107.412 150.626,107.412L150.626,106.821C151.488,106.845 152.373,106.867 153.235,106.867C153.848,106.867 154.46,106.821 155.096,106.821L155.096,107.412C154.143,107.435 153.712,108.047 153.212,108.728L148.879,114.582L148.879,120.436Z" style="fill:white;fill-rule:nonzero;"/>
        <path d="M170.544,120.436C170.544,122.024 171.406,122.047 172.609,122.07L172.609,122.659C171.475,122.637 170.431,122.614 169.387,122.614C168.366,122.614 167.322,122.637 166.165,122.659L166.165,122.07C168.139,122.07 168.321,121.706 168.321,119.505L168.321,109.431C168.321,107.571 167.958,107.48 166.165,107.412L166.165,106.821C167.776,106.821 169.433,106.867 171.089,106.867C173.153,106.867 175.241,106.867 177.26,106.821L177.396,110.021L176.875,110.112C176.648,108.183 175.695,107.548 173.222,107.548L170.544,107.548L170.544,113.991L173.222,113.991C175.082,113.991 175.241,113.72 175.536,112.109L176.058,112.109C176.012,112.539 175.967,113.765 175.967,114.582C175.967,115.308 176.012,116.374 176.058,116.987L175.604,116.987C175.332,115.421 175.309,114.922 173.313,114.922L170.544,114.922L170.544,120.436Z" style="fill:white;fill-rule:nonzero;"/>
        <path d="M182.478,109.045C182.478,107.457 181.615,107.435 180.413,107.412L180.413,106.821C181.479,106.845 182.523,106.867 183.544,106.867C184.587,106.867 185.631,106.845 186.766,106.821L186.766,107.412C185.563,107.435 184.701,107.457 184.701,109.045L184.701,120.436C184.701,122.024 185.563,122.047 186.766,122.07L186.766,122.659C185.677,122.659 184.701,122.614 183.703,122.614C182.614,122.614 181.547,122.637 180.413,122.659L180.413,122.07C181.615,122.047 182.478,122.024 182.478,120.436L182.478,109.045Z" style="fill:white;fill-rule:nonzero;"/>
        <path d="M195.568,107.548C195.001,107.548 194.615,107.616 194.207,107.684L194.207,114.332C194.547,114.401 195.023,114.446 195.409,114.446C198.2,114.446 199.289,112.608 199.289,110.974C199.289,109 198.246,107.548 195.568,107.548ZM194.207,115.172L194.207,120.436C194.207,122.024 195.069,122.047 196.271,122.07L196.271,122.659C195.183,122.659 194.207,122.614 193.208,122.614C192.119,122.614 191.053,122.637 189.918,122.659L189.918,122.07C191.053,122.138 191.983,121.843 191.983,120.549L191.983,109.045C191.983,107.457 191.121,107.435 189.918,107.412L189.918,106.821C191.167,106.845 192.255,106.867 193.367,106.867C194.162,106.867 194.956,106.821 196.408,106.821C200.696,106.821 201.649,109.227 201.649,110.838C201.649,112.767 200.197,114.196 198.427,114.718C200.492,117.736 201.581,119.551 202.557,120.64C203.283,121.457 203.963,122.07 205.121,122.07L205.121,122.659C204.553,122.659 203.986,122.614 203.419,122.614C202.784,122.614 202.125,122.637 201.49,122.659C199.425,120.391 197.905,117.736 196.271,115.172L194.207,115.172Z" style="fill:white;fill-rule:nonzero;"/>
        <path d="M218.664,119.551C220.706,115.308 222.907,111.133 224.791,106.821C225.402,106.845 226.039,106.867 226.65,106.867C227.308,106.867 227.99,106.821 228.648,106.821L228.648,107.412C227.876,107.412 227.354,107.457 227.059,107.684C226.764,107.911 226.628,108.297 226.628,109.045C226.628,112.63 226.832,116.443 226.923,119.868C226.968,121.571 227.126,122.07 229.396,122.07L229.396,122.659C228.148,122.659 226.9,122.614 225.652,122.614C224.541,122.614 223.451,122.637 222.339,122.659L222.339,122.07C223.134,122.07 223.701,122.07 224.086,121.865C224.496,121.638 224.676,121.207 224.676,120.322L224.517,109.499L224.472,109.499L219.118,120.617C218.868,121.162 218.414,122.274 218.232,122.863L217.779,122.863C215.85,118.529 213.672,114.287 211.517,109.998L211.471,109.998L211.29,118.212C211.29,118.507 211.267,119.324 211.267,119.642C211.267,120.753 211.38,121.366 211.743,121.684C212.106,122.001 212.674,122.07 213.581,122.07L213.581,122.659C212.651,122.659 211.698,122.614 210.768,122.614C209.77,122.614 208.748,122.637 207.75,122.659L207.75,122.07C209.361,122.07 210.359,121.684 210.45,118.644C210.541,115.534 210.7,112.449 210.7,109.34C210.7,108.546 210.586,108.047 210.269,107.775C209.951,107.502 209.452,107.412 208.703,107.412L208.703,106.821C209.497,106.845 210.314,106.867 211.108,106.867C211.584,106.867 212.083,106.821 212.56,106.821L218.664,119.551Z" style="fill:white;fill-rule:nonzero;"/>
        <path d="M244.823,120.436C244.823,122.024 245.685,122.047 246.887,122.07L246.887,122.659C245.752,122.637 244.709,122.614 243.666,122.614C242.644,122.614 241.6,122.637 240.444,122.659L240.444,122.07C242.417,122.07 242.599,121.706 242.599,119.505L242.599,109.431C242.599,107.571 242.236,107.48 240.444,107.412L240.444,106.821C242.054,106.821 243.71,106.867 245.367,106.867C247.432,106.867 249.519,106.867 251.539,106.821L251.675,110.021L251.153,110.112C250.926,108.183 249.973,107.548 247.5,107.548L244.823,107.548L244.823,113.991L247.5,113.991C249.361,113.991 249.519,113.72 249.814,112.109L250.336,112.109C250.291,112.539 250.246,113.765 250.246,114.582C250.246,115.308 250.291,116.374 250.336,116.987L249.882,116.987C249.61,115.421 249.587,114.922 247.59,114.922L244.823,114.922L244.823,120.436Z" style="fill:white;fill-rule:nonzero;"/>
        <path d="M263.79,122.274C267.102,122.274 269.19,119.414 269.19,115.308C269.19,111.859 267.193,107.207 263.313,107.207C260,107.207 257.913,110.067 257.913,114.173C257.913,117.622 259.91,122.274 263.79,122.274ZM263.585,106.482C268.124,106.482 271.686,110.339 271.686,114.65C271.686,118.802 268.487,123 263.517,123C258.979,123 255.417,119.143 255.417,114.831C255.417,110.679 258.617,106.482 263.585,106.482Z" style="fill:white;fill-rule:nonzero;"/>
        <path d="M281.213,107.548C280.646,107.548 280.26,107.616 279.852,107.684L279.852,114.332C280.192,114.401 280.668,114.446 281.054,114.446C283.845,114.446 284.934,112.608 284.934,110.974C284.934,109 283.89,107.548 281.213,107.548ZM279.852,115.172L279.852,120.436C279.852,122.024 280.714,122.047 281.917,122.07L281.917,122.659C280.828,122.659 279.852,122.614 278.853,122.614C277.764,122.614 276.698,122.637 275.563,122.659L275.563,122.07C276.698,122.138 277.628,121.843 277.628,120.549L277.628,109.045C277.628,107.457 276.766,107.435 275.563,107.412L275.563,106.821C276.811,106.845 277.901,106.867 279.012,106.867C279.806,106.867 280.6,106.821 282.052,106.821C286.341,106.821 287.294,109.227 287.294,110.838C287.294,112.767 285.842,114.196 284.072,114.718C286.137,117.736 287.226,119.551 288.202,120.64C288.927,121.457 289.609,122.07 290.765,122.07L290.765,122.659C290.199,122.659 289.631,122.614 289.064,122.614C288.428,122.614 287.771,122.637 287.135,122.659C285.071,120.391 283.55,117.736 281.917,115.172L279.852,115.172Z" style="fill:white;fill-rule:nonzero;"/>
        <path d="M306.032,120.436C306.032,122.024 306.894,122.047 308.096,122.07L308.096,122.659C306.961,122.637 305.918,122.614 304.875,122.614C303.853,122.614 302.809,122.637 301.653,122.659L301.653,122.07C303.626,122.07 303.808,121.706 303.808,119.505L303.808,109.431C303.808,107.571 303.445,107.48 301.653,107.412L301.653,106.821C303.263,106.821 304.919,106.867 306.576,106.867C308.641,106.867 310.728,106.867 312.748,106.821L312.884,110.021L312.362,110.112C312.135,108.183 311.182,107.548 308.708,107.548L306.032,107.548L306.032,113.991L308.708,113.991C310.57,113.991 310.728,113.72 311.023,112.109L311.545,112.109C311.5,112.539 311.455,113.765 311.455,114.582C311.455,115.308 311.5,116.374 311.545,116.987L311.091,116.987C310.819,115.421 310.796,114.922 308.799,114.922L306.032,114.922L306.032,120.436Z" style="fill:white;fill-rule:nonzero;"/>
        <path d="M319.26,115.784L323.934,115.784L321.506,109.113L321.46,109.113L319.26,115.784ZM326.974,118.144C327.292,119.029 327.905,120.957 328.268,121.457C328.608,121.91 329.289,122.07 330.015,122.07L330.015,122.659C329.153,122.659 328.268,122.614 327.406,122.614C326.293,122.614 325.205,122.637 324.093,122.659L324.093,122.07L324.501,122.07C325.069,122.07 325.75,121.956 325.75,121.321C325.75,121.071 325.568,120.436 325.409,120.005L324.274,116.715L318.942,116.715L318.443,118.303C318.148,119.256 317.831,120.3 317.831,121.003C317.831,122.07 318.58,122.024 319.374,122.07L319.895,122.07L319.895,122.659C319.01,122.659 318.103,122.614 317.218,122.614C316.31,122.614 315.38,122.637 314.472,122.659L314.472,122.07C315.857,121.91 316.106,121.729 316.673,120.458C317.037,119.642 317.309,118.757 317.604,117.917L320.508,109.817C320.689,109.295 320.984,108.455 320.984,107.775C320.984,107.548 320.984,107.366 320.939,107.185C321.416,106.958 321.937,106.708 322.255,106.187L322.641,106.187L326.974,118.144Z" style="fill:white;fill-rule:nonzero;"/>
        <path d="M343.604,119.551C345.646,115.308 347.847,111.133 349.73,106.821C350.343,106.845 350.978,106.867 351.591,106.867C352.249,106.867 352.929,106.821 353.587,106.821L353.587,107.412C352.816,107.412 352.294,107.457 352,107.684C351.705,107.911 351.568,108.297 351.568,109.045C351.568,112.63 351.772,116.443 351.863,119.868C351.909,121.571 352.068,122.07 354.336,122.07L354.336,122.659C353.088,122.659 351.84,122.614 350.592,122.614C349.481,122.614 348.392,122.637 347.28,122.659L347.28,122.07C348.074,122.07 348.641,122.07 349.027,121.865C349.435,121.638 349.617,121.207 349.617,120.322L349.458,109.499L349.413,109.499L344.058,120.617C343.808,121.162 343.355,122.274 343.173,122.863L342.719,122.863C340.791,118.529 338.613,114.287 336.457,109.998L336.412,109.998L336.23,118.212C336.23,118.507 336.208,119.324 336.208,119.642C336.208,120.753 336.321,121.366 336.684,121.684C337.046,122.001 337.614,122.07 338.522,122.07L338.522,122.659C337.591,122.659 336.638,122.614 335.708,122.614C334.709,122.614 333.689,122.637 332.69,122.659L332.69,122.07C334.301,122.07 335.299,121.684 335.39,118.644C335.481,115.534 335.64,112.449 335.64,109.34C335.64,108.546 335.527,108.047 335.208,107.775C334.891,107.502 334.392,107.412 333.643,107.412L333.643,106.821C334.437,106.845 335.254,106.867 336.048,106.867C336.525,106.867 337.024,106.821 337.5,106.821L343.604,119.551Z" style="fill:white;fill-rule:nonzero;"/>
        <path d="M359.257,109.045C359.257,107.457 358.396,107.435 357.193,107.412L357.193,106.821C358.259,106.845 359.303,106.867 360.324,106.867C361.368,106.867 362.412,106.845 363.546,106.821L363.546,107.412C362.343,107.435 361.481,107.457 361.481,109.045L361.481,120.436C361.481,122.024 362.343,122.047 363.546,122.07L363.546,122.659C362.457,122.659 361.481,122.614 360.483,122.614C359.394,122.614 358.328,122.637 357.193,122.659L357.193,122.07C358.396,122.047 359.257,122.024 359.257,120.436L359.257,109.045Z" style="fill:white;fill-rule:nonzero;"/>
        <path d="M378.475,122.659C376.546,122.614 374.64,122.614 372.712,122.614C370.693,122.614 368.696,122.614 366.699,122.659L366.699,122.07C367.833,122.138 368.764,121.843 368.764,120.549L368.764,109.045C368.764,107.457 367.902,107.435 366.699,107.412L366.699,106.821C367.765,106.845 368.809,106.867 369.831,106.867C370.875,106.867 371.917,106.845 373.052,106.821L373.052,107.412C371.85,107.435 370.988,107.457 370.988,109.045L370.988,119.551C370.988,121.23 371.35,121.934 374.573,121.934C377.205,121.934 378.112,121.298 378.816,119.097L379.315,119.188L378.475,122.659Z" style="fill:white;fill-rule:nonzero;"/>
        <path d="M388.597,120.436C388.597,122.024 389.459,122.047 390.663,122.07L390.663,122.659C389.528,122.637 388.484,122.614 387.44,122.614C386.419,122.614 385.375,122.637 384.309,122.659L384.309,122.07C385.512,122.047 386.374,122.024 386.374,120.436L386.374,114.945L381.631,108.41C380.974,107.48 380.86,107.526 379.522,107.412L379.522,106.821C379.953,106.845 381.631,106.867 382.675,106.867C383.606,106.867 384.513,106.821 385.444,106.821L385.444,107.412C385.081,107.412 384.173,107.412 384.173,107.888C384.173,108.16 384.491,108.683 384.921,109.295L388.098,113.765L391.071,109.703C391.343,109.318 391.956,108.592 391.956,108.07C391.956,107.412 391.501,107.412 390.344,107.412L390.344,106.821C391.207,106.845 392.091,106.867 392.954,106.867C393.567,106.867 394.179,106.821 394.815,106.821L394.815,107.412C393.862,107.435 393.43,108.047 392.931,108.728L388.597,114.582L388.597,120.436Z" style="fill:white;fill-rule:nonzero;"/>
        <path d="M417.75,122.659C415.821,122.614 413.915,122.614 411.987,122.614C409.967,122.614 407.97,122.614 405.973,122.659L405.973,122.07C407.108,122.138 408.039,121.843 408.039,120.549L408.039,109.045C408.039,107.457 407.176,107.435 405.973,107.412L405.973,106.821C407.04,106.845 408.083,106.867 409.105,106.867C410.149,106.867 411.192,106.845 412.327,106.821L412.327,107.412C411.125,107.435 410.262,107.457 410.262,109.045L410.262,119.551C410.262,121.23 410.625,121.934 413.847,121.934C416.479,121.934 417.386,121.298 418.09,119.097L418.589,119.188L417.75,122.659Z" style="fill:white;fill-rule:nonzero;"/>
        <path d="M425.962,115.784L430.636,115.784L428.208,109.113L428.163,109.113L425.962,115.784ZM433.676,118.144C433.995,119.029 434.607,120.957 434.97,121.457C435.31,121.91 435.991,122.07 436.717,122.07L436.717,122.659C435.855,122.659 434.97,122.614 434.108,122.614C432.996,122.614 431.907,122.637 430.795,122.659L430.795,122.07L431.204,122.07C431.771,122.07 432.452,121.956 432.452,121.321C432.452,121.071 432.27,120.436 432.111,120.005L430.976,116.715L425.644,116.715L425.145,118.303C424.85,119.256 424.533,120.3 424.533,121.003C424.533,122.07 425.282,122.024 426.076,122.07L426.597,122.07L426.597,122.659C425.712,122.659 424.805,122.614 423.92,122.614C423.012,122.614 422.083,122.637 421.174,122.659L421.174,122.07C422.559,121.91 422.808,121.729 423.375,120.458C423.739,119.642 424.011,118.757 424.306,117.917L427.21,109.817C427.391,109.295 427.686,108.455 427.686,107.775C427.686,107.548 427.686,107.366 427.641,107.185C428.118,106.958 428.639,106.708 428.958,106.187L429.343,106.187L433.676,118.144Z" style="fill:white;fill-rule:nonzero;"/>
        <path d="M447.769,115.081L445.069,108.819C444.547,107.616 444.342,107.412 442.914,107.412L442.914,106.821C443.98,106.845 445.024,106.867 446.067,106.867C446.838,106.867 447.678,106.821 448.427,106.821L448.427,107.412C448.018,107.412 447.179,107.435 447.179,107.979C447.179,108.16 447.337,108.614 447.428,108.841L448.904,112.63L450.333,109.522C450.605,108.932 450.742,108.501 450.742,108.138C450.742,107.412 450.197,107.412 449.221,107.412L449.221,106.821C450.061,106.845 450.991,106.867 451.831,106.867C452.443,106.867 453.169,106.821 453.804,106.821L453.804,107.412C452.625,107.412 452.17,107.979 451.74,108.863L449.425,113.72L452.148,120.005L455.937,109.635C456.323,108.614 456.345,108.32 456.345,108.16C456.345,107.752 456.119,107.435 454.644,107.412L454.644,106.821C455.484,106.845 456.345,106.867 457.185,106.867C457.752,106.867 458.411,106.821 459,106.821L459,107.412C457.934,107.412 457.684,108.047 457.322,108.978L451.899,123L451.308,123L448.246,116.148L445.046,123L444.411,123L438.784,109.204C438.262,107.956 437.99,107.412 436.401,107.412L436.401,106.821C437.4,106.845 438.511,106.867 439.51,106.867C440.372,106.867 441.325,106.821 442.187,106.821L442.187,107.412C441.143,107.412 440.781,107.616 440.781,107.934C440.781,108.16 440.781,108.342 441.03,108.978L445.477,120.005L447.769,115.081Z" style="fill:white;fill-rule:nonzero;"/>
    </g>
    <g transform="matrix(4.16667,0,0,4.16667,0,-3.33335)">
        <path d="M15.32,50.409C15.32,54.056 15.32,57.053 22.614,57.053C32.259,57.053 35.422,50.488 35.422,45.464C35.422,33.873 28.209,31.278 20.183,31.278L15.32,31.278L15.32,50.409ZM15.32,28.684L18.4,28.684C24.964,28.684 30.72,26.576 30.72,16.366C30.72,7.042 25.209,5.665 18.723,5.665C17.671,5.665 16.535,5.747 15.32,5.826L15.32,28.684ZM0,57.542C4.053,57.783 7.375,56.731 7.375,52.109L7.375,11.015C7.375,5.339 4.296,5.259 0,5.178L0,3.071C2.269,3.071 4.539,3.232 6.728,3.232L9.241,3.232C13.86,3.232 16.859,3.071 19.778,3.071C25.777,3.071 38.665,4.774 38.665,16.202C38.665,23.74 31.856,27.632 25.613,29.09L25.613,29.252C31.693,28.926 43.853,32.981 43.853,44.408C43.853,53.083 36.393,59.648 22.047,59.648C18.238,59.648 14.429,59.486 10.618,59.486C7.052,59.486 3.486,59.565 0,59.648L0,57.542Z" style="fill:white;fill-rule:nonzero;"/>
    </g>
    <g transform="matrix(4.16667,0,0,4.16667,0,-3.33335)">
        <path d="M65.964,5.665C63.937,5.665 62.559,5.905 61.1,6.149L61.1,29.899C62.316,30.143 64.019,30.307 65.396,30.307C75.365,30.307 79.258,23.74 79.258,17.905C79.258,10.852 75.527,5.665 65.964,5.665ZM61.1,32.9L61.1,51.705C61.1,57.378 64.18,57.458 68.476,57.542L68.476,59.648C64.585,59.648 61.1,59.486 57.533,59.486C53.643,59.486 49.835,59.565 45.781,59.648L45.781,57.542C49.835,57.783 53.156,56.731 53.156,52.109L53.156,11.015C53.156,5.339 50.078,5.259 45.781,5.178L45.781,3.071C50.238,3.151 54.128,3.232 58.101,3.232C60.938,3.232 63.776,3.071 68.961,3.071C84.281,3.071 87.686,11.664 87.686,17.417C87.686,24.309 82.498,29.414 76.175,31.278C83.552,42.056 87.443,48.542 90.928,52.432C93.522,55.351 95.954,57.542 100.088,57.542L100.088,59.648C98.06,59.648 96.036,59.486 94.007,59.486C91.74,59.486 89.388,59.565 87.12,59.648C79.743,51.542 74.312,42.056 68.476,32.9L61.1,32.9Z" style="fill:white;fill-rule:nonzero;"/>
    </g>
    <g transform="matrix(4.16667,0,0,4.16667,0,-3.33335)">
        <path d="M226.929,11.5C227.822,10.608 229.929,8.501 229.929,7.042C229.929,5.178 227.58,5.178 225.39,5.178L225.39,3.071C228.875,3.151 232.441,3.232 235.846,3.232C238.52,3.232 241.034,3.151 243.627,3.071L243.627,5.178C239.089,5.178 236.414,5.905 229.119,13.526L215.258,28.036C223.444,37.031 231.388,46.191 239.818,54.947C242.493,57.542 245.086,57.542 246.789,57.542L246.789,59.648C244.196,59.565 241.521,59.486 238.926,59.486C236.981,59.486 235.036,59.565 233.09,59.648C225.066,49.922 216.312,40.924 207.882,31.522L226.929,11.5ZM192.237,57.542C196.533,57.458 199.613,57.378 199.613,51.705L199.613,11.015C199.613,5.339 196.533,5.259 192.237,5.178L192.237,3.071C196.048,3.151 199.776,3.232 203.424,3.232C207.152,3.232 210.881,3.151 213.718,3.071L213.718,5.178C210.637,5.259 207.559,5.339 207.559,11.015L207.559,51.705C207.559,57.378 210.637,57.458 214.043,57.542L214.043,59.648C211.043,59.648 207.559,59.486 203.992,59.486C200.101,59.486 196.291,59.565 192.237,59.648L192.237,57.542Z" style="fill:white;fill-rule:nonzero;"/>
    </g>
    <g transform="matrix(4.16667,0,0,4.16667,0,-3.33335)">
        <path d="M290.997,48.542C298.29,33.385 306.154,18.471 312.879,3.071C315.07,3.151 317.338,3.232 319.528,3.232C321.878,3.232 324.309,3.071 326.661,3.071L326.661,5.178C323.905,5.178 322.039,5.339 320.987,6.149C319.933,6.962 319.447,8.341 319.447,11.015C319.447,23.822 320.174,37.438 320.5,49.677C320.662,55.757 321.231,57.542 329.334,57.542L329.334,59.648C324.876,59.648 320.418,59.486 315.96,59.486C311.989,59.486 308.098,59.565 304.125,59.648L304.125,57.542C306.963,57.542 308.991,57.542 310.368,56.81C311.828,55.999 312.477,54.459 312.477,51.299L311.908,12.633L311.746,12.633L292.618,52.353C291.725,54.299 290.105,58.27 289.456,60.376L287.833,60.376C280.945,44.895 273.163,29.739 265.462,14.418L265.3,14.418L264.652,43.759C264.652,44.815 264.572,47.733 264.572,48.867C264.572,52.839 264.977,55.026 266.273,56.162C267.571,57.298 269.597,57.542 272.839,57.542L272.839,59.648C269.515,59.648 266.112,59.486 262.787,59.486C259.221,59.486 255.574,59.565 252.008,59.648L252.008,57.542C257.76,57.542 261.329,56.162 261.653,45.299C261.976,34.196 262.545,23.173 262.545,12.067C262.545,9.232 262.139,7.448 261.004,6.474C259.871,5.503 258.087,5.178 255.413,5.178L255.413,3.071C258.25,3.151 261.167,3.232 264.004,3.232C265.706,3.232 267.489,3.071 269.192,3.071L290.997,48.542Z" style="fill:white;fill-rule:nonzero;"/>
    </g>
    <g transform="matrix(4.16667,0,0,4.16667,0,-3.33335)">
        <path d="M351.253,35.088L367.951,35.088L359.279,11.256L359.116,11.256L351.253,35.088ZM378.812,43.516C379.948,46.679 382.136,53.568 383.431,55.351C384.65,56.973 387.081,57.542 389.672,57.542L389.672,59.648C386.594,59.648 383.431,59.486 380.353,59.486C376.38,59.486 372.491,59.565 368.519,59.648L368.519,57.542L369.978,57.542C372.003,57.542 374.436,57.134 374.436,54.866C374.436,53.974 373.787,51.705 373.22,50.166L369.167,38.412L350.119,38.412L348.336,44.085C347.28,47.49 346.147,51.217 346.147,53.731C346.147,57.542 348.823,57.378 351.659,57.542L353.523,57.542L353.523,59.648C350.363,59.648 347.12,59.486 343.958,59.486C340.715,59.486 337.394,59.565 334.151,59.648L334.151,57.542C339.095,56.973 339.987,56.325 342.013,51.784C343.311,48.867 344.282,45.707 345.336,42.709L355.71,13.77C356.36,11.907 357.415,8.905 357.415,6.474C357.415,5.665 357.415,5.014 357.252,4.366C358.954,3.555 360.819,2.665 361.954,0.8L363.332,0.8L378.812,43.516Z" style="fill:white;fill-rule:nonzero;"/>
    </g>
    <g transform="matrix(4.16667,0,0,4.16667,0,-3.33335)">
        <path d="M451.309,60.376L449.444,60.376L407.051,13.851L407.051,44.085C407.051,55.27 407.943,57.542 416.697,57.542L416.697,59.648C413.131,59.648 409.484,59.486 405.918,59.486C402.351,59.486 398.704,59.565 395.137,59.648L395.137,57.542C400.081,57.542 403.809,57.542 403.809,47.246L403.809,14.663C403.809,7.69 400.809,5.178 393.839,5.178L393.839,3.071C396.352,3.151 398.784,3.232 401.297,3.232C403.485,3.232 405.755,3.071 407.943,3.071C411.267,8.013 418.806,15.39 428.044,25.605C434.934,33.225 442.553,41.25 448.067,47.246L448.067,14.985C448.067,7.529 446.364,5.259 438.258,5.178L438.258,3.071C441.986,3.151 445.797,3.232 449.525,3.232C452.687,3.232 455.765,3.071 458.927,3.071L458.927,5.178C453.982,5.178 451.309,5.583 451.309,13.526L451.309,60.376Z" style="fill:white;fill-rule:nonzero;"/>
    </g>
    <g transform="matrix(4.16667,0,0,4.16667,0,-3.33335)">
        <path d="M159.909,1.855C142.156,1.855 130.727,16.85 130.727,31.683C130.727,39.077 133.666,46.093 138.512,51.393C141.043,48.561 142.247,45.565 142.719,44.101C140.678,39.323 139.643,34.018 139.643,29.332C139.643,14.663 147.101,4.448 158.936,4.448C172.796,4.448 179.929,21.067 179.929,33.385C179.929,48.057 172.471,58.27 160.638,58.27C155.67,58.27 151.57,56.128 148.351,52.821C147.315,53.981 146.017,55.263 144.502,56.421C148.888,59.21 154.064,60.864 159.664,60.864C177.416,60.864 188.845,45.868 188.845,31.035C188.845,15.633 176.119,1.855 159.909,1.855Z" style="fill:white;fill-rule:nonzero;"/>
    </g>
    <g transform="matrix(1,0,0,1.12594,-827.706,-4632.9)">
        <path d="M2741.39,4581.02C2741.39,4568.64 2730.07,4558.59 2716.14,4558.59L854.56,4558.59C840.622,4558.59 829.306,4568.64 829.306,4581.02L829.306,4690.89C829.306,4703.27 840.622,4713.32 854.56,4713.32L2716.14,4713.32C2730.07,4713.32 2741.39,4703.27 2741.39,4690.89L2741.39,4581.02Z" style="fill:rgb(152,121,149);"/>
    </g>
    <g transform="matrix(1.34677,0,0,1.62739,-146.928,-47.7446)">
        <g transform="matrix(84.4612,0,0,69.8972,151.083,412.073)">
            <path d="M0.172,-0.644C0.191,-0.644 0.211,-0.644 0.234,-0.645C0.256,-0.646 0.277,-0.646 0.297,-0.646C0.335,-0.646 0.371,-0.641 0.405,-0.631C0.439,-0.62 0.469,-0.601 0.494,-0.573C0.52,-0.544 0.532,-0.509 0.532,-0.468C0.532,-0.415 0.512,-0.369 0.471,-0.331C0.431,-0.293 0.381,-0.273 0.323,-0.273C0.313,-0.273 0.302,-0.275 0.292,-0.278C0.282,-0.282 0.274,-0.285 0.269,-0.288C0.263,-0.291 0.26,-0.293 0.259,-0.295C0.256,-0.299 0.255,-0.306 0.254,-0.316C0.253,-0.327 0.255,-0.332 0.258,-0.332C0.266,-0.327 0.281,-0.324 0.302,-0.324C0.356,-0.324 0.384,-0.368 0.384,-0.457C0.384,-0.546 0.354,-0.591 0.294,-0.591C0.271,-0.591 0.256,-0.588 0.249,-0.583C0.241,-0.577 0.237,-0.545 0.237,-0.487L0.237,-0.138C0.237,-0.104 0.24,-0.078 0.244,-0.058C0.246,-0.05 0.257,-0.044 0.276,-0.039C0.296,-0.035 0.311,-0.032 0.32,-0.032C0.323,-0.032 0.324,-0.026 0.324,-0.014C0.324,-0.006 0.324,-0 0.322,0.004C0.244,-0 0.194,-0.002 0.173,-0.002L0.03,0.004C0.028,0.001 0.026,-0.004 0.026,-0.013C0.026,-0.026 0.028,-0.032 0.03,-0.032C0.038,-0.032 0.05,-0.035 0.067,-0.039C0.083,-0.044 0.093,-0.049 0.095,-0.054C0.099,-0.069 0.101,-0.097 0.101,-0.14L0.101,-0.509C0.101,-0.545 0.099,-0.57 0.095,-0.585C0.093,-0.59 0.083,-0.596 0.066,-0.603C0.049,-0.609 0.036,-0.612 0.029,-0.612C0.027,-0.612 0.025,-0.618 0.025,-0.63C0.025,-0.64 0.026,-0.646 0.028,-0.648C0.087,-0.645 0.135,-0.644 0.172,-0.644Z" style="fill:rgb(103,52,101);fill-rule:nonzero;"/>
        </g>
        <g transform="matrix(84.4612,0,0,69.8972,205.864,412.073)">
            <path d="M0.413,-0.032C0.427,-0.032 0.442,-0.035 0.457,-0.042C0.472,-0.048 0.479,-0.056 0.479,-0.066C0.479,-0.068 0.471,-0.09 0.455,-0.132L0.426,-0.203C0.423,-0.206 0.421,-0.207 0.419,-0.207C0.407,-0.208 0.375,-0.208 0.325,-0.208C0.282,-0.208 0.249,-0.208 0.227,-0.207C0.224,-0.207 0.222,-0.205 0.22,-0.202C0.22,-0.202 0.209,-0.177 0.188,-0.128C0.174,-0.099 0.168,-0.079 0.168,-0.068C0.168,-0.058 0.174,-0.05 0.186,-0.044C0.197,-0.038 0.208,-0.035 0.216,-0.034C0.225,-0.033 0.233,-0.032 0.239,-0.032C0.241,-0.032 0.242,-0.026 0.242,-0.017C0.242,-0.007 0.242,-0 0.24,0.004C0.232,0.003 0.215,0.002 0.189,-0C0.163,-0.003 0.142,-0.004 0.126,-0.004C0.11,-0.004 0.09,-0.003 0.067,-0C0.045,0.002 0.027,0.003 0.015,0.004C0.012,0.001 0.011,-0.004 0.011,-0.011C0.011,-0.024 0.011,-0.031 0.013,-0.031C0.021,-0.031 0.034,-0.035 0.052,-0.042C0.07,-0.048 0.081,-0.055 0.086,-0.063C0.091,-0.07 0.097,-0.08 0.102,-0.091C0.108,-0.103 0.112,-0.112 0.115,-0.119L0.12,-0.131L0.336,-0.627C0.343,-0.644 0.355,-0.652 0.372,-0.652C0.382,-0.652 0.39,-0.648 0.396,-0.64L0.596,-0.145C0.608,-0.115 0.619,-0.088 0.628,-0.064C0.632,-0.054 0.643,-0.046 0.66,-0.041C0.678,-0.035 0.691,-0.032 0.7,-0.032C0.703,-0.032 0.704,-0.027 0.704,-0.016C0.704,-0.005 0.703,0.002 0.702,0.004C0.7,0.004 0.68,0.003 0.642,-0C0.605,-0.003 0.577,-0.004 0.561,-0.004C0.556,-0.004 0.507,-0.001 0.413,0.004C0.41,0.001 0.409,-0.005 0.409,-0.016C0.409,-0.027 0.41,-0.032 0.413,-0.032ZM0.253,-0.27C0.272,-0.268 0.297,-0.267 0.325,-0.267C0.351,-0.267 0.374,-0.267 0.395,-0.269L0.397,-0.273L0.327,-0.448L0.251,-0.273C0.251,-0.271 0.252,-0.27 0.253,-0.27Z" style="fill:rgb(103,52,101);fill-rule:nonzero;"/>
        </g>
        <g transform="matrix(84.4612,0,0,69.8972,272.852,412.073)">
            <path d="M0.294,-0.591C0.271,-0.591 0.256,-0.588 0.249,-0.583C0.242,-0.578 0.238,-0.546 0.237,-0.487L0.237,-0.382C0.237,-0.372 0.238,-0.364 0.241,-0.358C0.243,-0.353 0.246,-0.348 0.251,-0.346C0.256,-0.343 0.26,-0.341 0.264,-0.341C0.268,-0.34 0.272,-0.34 0.278,-0.34L0.305,-0.34C0.33,-0.34 0.35,-0.351 0.364,-0.373C0.378,-0.395 0.385,-0.424 0.385,-0.461C0.385,-0.548 0.354,-0.591 0.294,-0.591ZM0.309,-0.645C0.331,-0.645 0.354,-0.642 0.378,-0.636C0.402,-0.631 0.426,-0.622 0.45,-0.61C0.474,-0.599 0.494,-0.582 0.51,-0.559C0.525,-0.537 0.533,-0.51 0.533,-0.48C0.533,-0.437 0.521,-0.399 0.495,-0.366C0.47,-0.334 0.442,-0.313 0.413,-0.303C0.408,-0.301 0.407,-0.297 0.41,-0.292C0.424,-0.268 0.437,-0.248 0.447,-0.232C0.457,-0.216 0.469,-0.198 0.483,-0.179C0.497,-0.16 0.508,-0.144 0.517,-0.132C0.533,-0.108 0.554,-0.085 0.581,-0.064C0.607,-0.043 0.632,-0.032 0.657,-0.032C0.66,-0.029 0.661,-0.023 0.661,-0.015C0.661,-0.007 0.66,-0.001 0.657,0.005C0.648,0.006 0.637,0.007 0.623,0.007C0.591,0.007 0.562,0.004 0.536,-0.002C0.509,-0.009 0.488,-0.016 0.472,-0.023C0.456,-0.031 0.44,-0.043 0.424,-0.059C0.408,-0.074 0.396,-0.087 0.389,-0.098C0.381,-0.108 0.37,-0.123 0.357,-0.144C0.351,-0.154 0.342,-0.167 0.332,-0.184C0.322,-0.2 0.313,-0.213 0.307,-0.222C0.301,-0.232 0.294,-0.242 0.287,-0.252C0.28,-0.262 0.274,-0.27 0.269,-0.275C0.264,-0.281 0.26,-0.284 0.257,-0.285C0.255,-0.286 0.251,-0.286 0.246,-0.286C0.24,-0.286 0.237,-0.281 0.237,-0.271L0.237,-0.138C0.237,-0.104 0.24,-0.078 0.244,-0.058C0.246,-0.05 0.257,-0.044 0.276,-0.039C0.296,-0.035 0.311,-0.032 0.32,-0.032C0.323,-0.032 0.324,-0.026 0.324,-0.014C0.324,-0.006 0.324,-0 0.322,0.004C0.244,-0 0.194,-0.002 0.173,-0.002L0.03,0.004C0.028,0.001 0.026,-0.004 0.026,-0.013C0.026,-0.026 0.028,-0.032 0.03,-0.032C0.038,-0.032 0.05,-0.035 0.067,-0.039C0.083,-0.044 0.093,-0.049 0.095,-0.054C0.099,-0.069 0.101,-0.097 0.101,-0.14L0.101,-0.509C0.101,-0.545 0.099,-0.57 0.095,-0.585C0.093,-0.59 0.083,-0.596 0.066,-0.603C0.049,-0.609 0.036,-0.612 0.029,-0.612C0.027,-0.612 0.025,-0.618 0.025,-0.63C0.025,-0.64 0.026,-0.646 0.028,-0.648C0.088,-0.645 0.136,-0.644 0.172,-0.644C0.189,-0.644 0.212,-0.644 0.239,-0.644C0.266,-0.644 0.289,-0.645 0.309,-0.645Z" style="fill:rgb(103,52,101);fill-rule:nonzero;"/>
        </g>
        <g transform="matrix(84.4612,0,0,69.8972,338.933,412.073)">
            <path d="M0.216,-0.645C0.26,-0.643 0.296,-0.642 0.323,-0.642C0.351,-0.642 0.386,-0.643 0.431,-0.645C0.475,-0.646 0.511,-0.647 0.538,-0.647C0.554,-0.647 0.577,-0.651 0.605,-0.658L0.624,-0.498C0.619,-0.493 0.61,-0.491 0.596,-0.491C0.59,-0.491 0.587,-0.493 0.586,-0.496C0.57,-0.561 0.535,-0.593 0.481,-0.593C0.429,-0.593 0.401,-0.587 0.398,-0.575C0.393,-0.557 0.391,-0.528 0.391,-0.488L0.391,-0.136C0.391,-0.103 0.393,-0.077 0.398,-0.057C0.4,-0.052 0.409,-0.047 0.425,-0.041C0.442,-0.035 0.453,-0.032 0.459,-0.032C0.462,-0.032 0.463,-0.026 0.463,-0.014C0.463,-0.006 0.462,-0 0.461,0.004C0.456,0.004 0.437,0.003 0.402,-0C0.368,-0.003 0.342,-0.004 0.325,-0.004C0.308,-0.004 0.282,-0.003 0.248,-0C0.214,0.002 0.193,0.003 0.184,0.004C0.181,0.001 0.18,-0.004 0.18,-0.012C0.18,-0.025 0.181,-0.032 0.183,-0.032C0.19,-0.032 0.202,-0.035 0.219,-0.041C0.236,-0.046 0.245,-0.051 0.247,-0.057C0.252,-0.074 0.254,-0.099 0.254,-0.132L0.254,-0.485C0.254,-0.536 0.251,-0.566 0.246,-0.575C0.244,-0.579 0.242,-0.582 0.241,-0.583C0.239,-0.585 0.232,-0.587 0.22,-0.589C0.207,-0.592 0.189,-0.593 0.166,-0.593C0.139,-0.593 0.118,-0.585 0.101,-0.571C0.084,-0.556 0.071,-0.532 0.062,-0.497C0.061,-0.494 0.058,-0.492 0.052,-0.492C0.037,-0.492 0.028,-0.494 0.023,-0.499L0.042,-0.658C0.071,-0.651 0.093,-0.647 0.109,-0.647C0.137,-0.647 0.172,-0.646 0.216,-0.645Z" style="fill:rgb(103,52,101);fill-rule:nonzero;"/>
        </g>
        <g transform="matrix(84.4612,0,0,69.8972,426.225,412.073)">
            <path d="M0.323,-0.597C0.289,-0.597 0.26,-0.584 0.237,-0.559C0.215,-0.534 0.199,-0.503 0.19,-0.467C0.181,-0.43 0.177,-0.389 0.177,-0.342C0.177,-0.309 0.18,-0.276 0.186,-0.244C0.192,-0.211 0.202,-0.18 0.214,-0.149C0.227,-0.118 0.245,-0.093 0.27,-0.074C0.294,-0.055 0.322,-0.045 0.354,-0.045C0.402,-0.045 0.439,-0.07 0.463,-0.119C0.488,-0.169 0.5,-0.229 0.5,-0.302C0.5,-0.338 0.497,-0.372 0.492,-0.404C0.486,-0.436 0.477,-0.467 0.465,-0.498C0.452,-0.528 0.434,-0.552 0.41,-0.57C0.386,-0.588 0.357,-0.597 0.323,-0.597ZM0.117,-0.087C0.055,-0.151 0.024,-0.229 0.024,-0.32C0.024,-0.411 0.055,-0.489 0.117,-0.554C0.178,-0.619 0.252,-0.651 0.338,-0.651C0.424,-0.651 0.498,-0.619 0.56,-0.554C0.621,-0.489 0.652,-0.411 0.652,-0.32C0.652,-0.229 0.621,-0.151 0.56,-0.087C0.498,-0.022 0.424,0.01 0.338,0.01C0.252,0.01 0.178,-0.022 0.117,-0.087Z" style="fill:rgb(103,52,101);fill-rule:nonzero;"/>
        </g>
        <g transform="matrix(84.4612,0,0,69.8972,491.151,412.073)">
            <path d="M0.172,-0.644C0.214,-0.644 0.269,-0.644 0.336,-0.646C0.403,-0.648 0.453,-0.648 0.487,-0.648C0.488,-0.642 0.497,-0.594 0.516,-0.504C0.512,-0.501 0.505,-0.499 0.493,-0.499C0.486,-0.499 0.481,-0.501 0.479,-0.506C0.467,-0.531 0.448,-0.552 0.421,-0.569C0.394,-0.587 0.368,-0.596 0.343,-0.596L0.306,-0.596C0.265,-0.596 0.243,-0.591 0.242,-0.583C0.239,-0.567 0.237,-0.542 0.237,-0.507L0.237,-0.356C0.237,-0.353 0.251,-0.351 0.279,-0.351L0.331,-0.351C0.371,-0.351 0.394,-0.352 0.397,-0.354C0.401,-0.357 0.403,-0.367 0.405,-0.383C0.407,-0.393 0.409,-0.402 0.411,-0.411C0.412,-0.416 0.417,-0.418 0.426,-0.418C0.437,-0.418 0.444,-0.416 0.447,-0.413L0.447,-0.229C0.445,-0.226 0.438,-0.225 0.427,-0.225C0.418,-0.225 0.413,-0.227 0.411,-0.232C0.409,-0.242 0.406,-0.249 0.404,-0.256C0.402,-0.262 0.401,-0.267 0.399,-0.271C0.398,-0.274 0.397,-0.277 0.395,-0.279C0.393,-0.282 0.392,-0.284 0.392,-0.284C0.391,-0.285 0.39,-0.286 0.388,-0.287C0.386,-0.288 0.384,-0.288 0.384,-0.289C0.375,-0.294 0.35,-0.297 0.308,-0.297C0.261,-0.297 0.237,-0.294 0.237,-0.288L0.237,-0.138C0.237,-0.104 0.24,-0.078 0.244,-0.058C0.246,-0.05 0.257,-0.044 0.276,-0.039C0.296,-0.035 0.311,-0.032 0.32,-0.032C0.323,-0.032 0.324,-0.026 0.324,-0.014C0.324,-0.006 0.324,-0 0.322,0.004C0.244,-0 0.194,-0.002 0.173,-0.002L0.03,0.004C0.028,0.001 0.026,-0.004 0.026,-0.013C0.026,-0.026 0.028,-0.032 0.03,-0.032C0.038,-0.032 0.05,-0.035 0.067,-0.039C0.083,-0.044 0.093,-0.049 0.095,-0.054C0.099,-0.069 0.101,-0.097 0.101,-0.14L0.101,-0.509C0.101,-0.545 0.099,-0.57 0.095,-0.585C0.093,-0.59 0.083,-0.596 0.066,-0.603C0.049,-0.609 0.036,-0.612 0.029,-0.612C0.027,-0.612 0.025,-0.618 0.025,-0.63C0.025,-0.64 0.026,-0.646 0.028,-0.648C0.087,-0.645 0.135,-0.644 0.172,-0.644Z" style="fill:rgb(103,52,101);fill-rule:nonzero;"/>
        </g>
        <g transform="matrix(84.4612,0,0,69.8972,569.205,412.073)">
            <path d="M0.172,-0.644L0.342,-0.644C0.448,-0.644 0.531,-0.612 0.591,-0.549C0.651,-0.486 0.681,-0.413 0.681,-0.328C0.681,-0.234 0.65,-0.156 0.59,-0.092C0.529,-0.029 0.446,0.003 0.341,0.003C0.328,0.003 0.303,0.002 0.265,0C0.226,-0.001 0.196,-0.002 0.173,-0.002L0.03,0.004C0.028,0.001 0.026,-0.004 0.026,-0.013C0.026,-0.026 0.028,-0.032 0.03,-0.032C0.038,-0.032 0.05,-0.035 0.067,-0.039C0.083,-0.044 0.093,-0.049 0.095,-0.054C0.099,-0.069 0.101,-0.097 0.101,-0.14L0.101,-0.509C0.101,-0.545 0.099,-0.57 0.095,-0.585C0.093,-0.59 0.083,-0.596 0.066,-0.603C0.049,-0.609 0.036,-0.612 0.029,-0.612C0.027,-0.612 0.025,-0.618 0.025,-0.63C0.025,-0.64 0.026,-0.646 0.028,-0.648C0.08,-0.645 0.128,-0.644 0.172,-0.644ZM0.237,-0.512L0.237,-0.133C0.237,-0.09 0.24,-0.068 0.246,-0.064C0.26,-0.056 0.297,-0.052 0.356,-0.052C0.411,-0.052 0.453,-0.075 0.483,-0.122C0.513,-0.169 0.528,-0.239 0.528,-0.332C0.528,-0.404 0.513,-0.464 0.481,-0.514C0.449,-0.564 0.406,-0.589 0.35,-0.589L0.345,-0.589C0.289,-0.589 0.258,-0.584 0.25,-0.573C0.242,-0.562 0.237,-0.541 0.237,-0.512Z" style="fill:rgb(103,52,101);fill-rule:nonzero;"/>
        </g>
        <g transform="matrix(84.4612,0,0,69.8972,636.524,412.073)">
            <path d="M0.186,-0.641C0.199,-0.641 0.217,-0.641 0.241,-0.643C0.264,-0.645 0.28,-0.646 0.288,-0.646C0.295,-0.626 0.321,-0.564 0.368,-0.462C0.415,-0.361 0.45,-0.281 0.473,-0.225L0.475,-0.225C0.476,-0.225 0.477,-0.225 0.477,-0.226C0.527,-0.35 0.566,-0.452 0.596,-0.533L0.628,-0.643C0.64,-0.641 0.666,-0.641 0.707,-0.641C0.711,-0.641 0.752,-0.643 0.83,-0.646C0.833,-0.643 0.834,-0.637 0.834,-0.631C0.834,-0.617 0.832,-0.61 0.829,-0.61L0.828,-0.61C0.812,-0.61 0.798,-0.606 0.787,-0.599C0.777,-0.591 0.773,-0.578 0.773,-0.559C0.775,-0.533 0.778,-0.465 0.783,-0.356C0.788,-0.248 0.792,-0.178 0.793,-0.148C0.795,-0.109 0.8,-0.079 0.808,-0.059C0.81,-0.053 0.819,-0.047 0.833,-0.041C0.848,-0.035 0.858,-0.032 0.864,-0.032C0.867,-0.032 0.868,-0.026 0.868,-0.013C0.868,-0.006 0.868,-0 0.866,0.004C0.859,0.003 0.841,0.002 0.812,-0C0.782,-0.003 0.759,-0.004 0.742,-0.004C0.725,-0.004 0.699,-0.003 0.665,-0C0.631,0.002 0.61,0.003 0.601,0.004C0.597,0.001 0.596,-0.005 0.596,-0.012C0.596,-0.025 0.597,-0.032 0.599,-0.032C0.606,-0.032 0.617,-0.035 0.632,-0.041C0.647,-0.047 0.656,-0.053 0.659,-0.06C0.664,-0.069 0.667,-0.078 0.667,-0.087C0.667,-0.102 0.666,-0.121 0.665,-0.145L0.657,-0.393C0.655,-0.436 0.652,-0.458 0.649,-0.458C0.648,-0.458 0.646,-0.456 0.645,-0.451L0.476,-0.03C0.473,-0.024 0.468,-0.017 0.46,-0.009C0.452,-0.002 0.444,0.002 0.437,0.002C0.435,0.002 0.432,0.001 0.428,-0L0.213,-0.482L0.196,-0.106C0.196,-0.088 0.197,-0.076 0.197,-0.071C0.199,-0.063 0.214,-0.054 0.24,-0.045C0.267,-0.037 0.285,-0.032 0.293,-0.032C0.296,-0.032 0.297,-0.026 0.297,-0.013C0.297,-0.006 0.296,-0 0.295,0.004C0.29,0.004 0.27,0.003 0.236,-0C0.202,-0.003 0.177,-0.004 0.16,-0.004C0.143,-0.004 0.12,-0.003 0.09,-0C0.06,0.002 0.04,0.003 0.029,0.004C0.027,0.001 0.025,-0.004 0.025,-0.013C0.025,-0.025 0.026,-0.031 0.028,-0.031C0.04,-0.031 0.059,-0.036 0.085,-0.046C0.112,-0.056 0.126,-0.067 0.127,-0.081C0.128,-0.096 0.13,-0.112 0.131,-0.128C0.133,-0.162 0.135,-0.212 0.138,-0.278C0.14,-0.344 0.143,-0.408 0.145,-0.469C0.146,-0.53 0.148,-0.565 0.148,-0.573C0.148,-0.58 0.147,-0.586 0.146,-0.591C0.144,-0.596 0.133,-0.601 0.114,-0.605C0.095,-0.609 0.082,-0.611 0.073,-0.611C0.071,-0.611 0.069,-0.618 0.069,-0.632C0.069,-0.639 0.071,-0.644 0.073,-0.646C0.082,-0.646 0.099,-0.645 0.124,-0.643C0.148,-0.641 0.169,-0.641 0.186,-0.641Z" style="fill:rgb(103,52,101);fill-rule:nonzero;"/>
        </g>
        <g transform="matrix(84.4612,0,0,69.8972,719.843,412.073)">
            <path d="M0.472,-0.135L0.472,-0.298C0.472,-0.298 0.471,-0.299 0.47,-0.302C0.409,-0.303 0.37,-0.304 0.355,-0.304C0.275,-0.303 0.234,-0.302 0.234,-0.301L0.236,-0.299L0.236,-0.139C0.236,-0.104 0.239,-0.077 0.244,-0.057C0.245,-0.052 0.254,-0.047 0.271,-0.041C0.288,-0.035 0.299,-0.032 0.305,-0.032C0.307,-0.032 0.309,-0.027 0.309,-0.018C0.309,-0.008 0.309,-0.001 0.307,0.004C0.303,0.004 0.283,0.003 0.247,-0C0.21,-0.003 0.183,-0.004 0.166,-0.004C0.149,-0.004 0.125,-0.003 0.092,-0C0.06,0.002 0.039,0.003 0.029,0.004C0.027,0.001 0.025,-0.004 0.025,-0.013C0.025,-0.026 0.026,-0.032 0.027,-0.032C0.035,-0.032 0.048,-0.035 0.064,-0.04C0.081,-0.045 0.091,-0.05 0.093,-0.056C0.097,-0.073 0.1,-0.1 0.1,-0.135L0.1,-0.508C0.1,-0.548 0.097,-0.573 0.093,-0.584C0.09,-0.591 0.08,-0.597 0.065,-0.603C0.05,-0.608 0.039,-0.61 0.031,-0.61C0.029,-0.61 0.027,-0.617 0.027,-0.63C0.027,-0.64 0.028,-0.645 0.029,-0.646C0.119,-0.643 0.164,-0.641 0.165,-0.641C0.182,-0.641 0.229,-0.643 0.308,-0.646C0.31,-0.643 0.311,-0.636 0.311,-0.626C0.311,-0.616 0.309,-0.61 0.307,-0.61C0.301,-0.61 0.289,-0.608 0.272,-0.602C0.256,-0.597 0.246,-0.591 0.244,-0.587C0.239,-0.573 0.236,-0.546 0.236,-0.504L0.236,-0.365L0.238,-0.362C0.302,-0.361 0.341,-0.36 0.355,-0.36C0.373,-0.36 0.411,-0.361 0.47,-0.362C0.471,-0.364 0.472,-0.365 0.472,-0.366L0.472,-0.508C0.472,-0.542 0.469,-0.567 0.465,-0.585C0.463,-0.59 0.454,-0.596 0.438,-0.602C0.422,-0.607 0.41,-0.61 0.403,-0.61C0.401,-0.61 0.399,-0.616 0.399,-0.626C0.399,-0.637 0.4,-0.644 0.402,-0.646C0.492,-0.643 0.541,-0.641 0.548,-0.641C0.558,-0.641 0.602,-0.643 0.68,-0.646C0.682,-0.641 0.683,-0.635 0.683,-0.629C0.683,-0.617 0.681,-0.61 0.678,-0.61C0.672,-0.61 0.66,-0.608 0.644,-0.602C0.627,-0.597 0.618,-0.591 0.616,-0.587C0.611,-0.567 0.608,-0.54 0.608,-0.504L0.608,-0.139C0.608,-0.104 0.611,-0.076 0.616,-0.056C0.618,-0.051 0.626,-0.046 0.643,-0.041C0.66,-0.036 0.671,-0.033 0.677,-0.033C0.679,-0.033 0.681,-0.026 0.681,-0.013C0.681,-0.007 0.68,-0.002 0.678,0.004C0.672,0.004 0.653,0.003 0.62,-0C0.588,-0.003 0.563,-0.004 0.546,-0.004C0.528,-0.004 0.502,-0.003 0.466,-0C0.431,0.002 0.409,0.003 0.4,0.004C0.398,0.001 0.397,-0.005 0.397,-0.016C0.397,-0.027 0.399,-0.032 0.401,-0.032C0.409,-0.032 0.421,-0.035 0.438,-0.041C0.454,-0.047 0.464,-0.052 0.466,-0.058C0.47,-0.073 0.472,-0.098 0.472,-0.135Z" style="fill:rgb(103,52,101);fill-rule:nonzero;"/>
        </g>
        <g transform="matrix(84.4612,0,0,69.8972,812.249,412.073)">
            <path d="M0.03,-0.478C0.03,-0.526 0.052,-0.568 0.095,-0.603C0.139,-0.637 0.186,-0.654 0.238,-0.654C0.252,-0.654 0.266,-0.653 0.281,-0.651C0.295,-0.649 0.308,-0.647 0.318,-0.646C0.328,-0.644 0.342,-0.64 0.36,-0.636C0.378,-0.632 0.392,-0.629 0.402,-0.627C0.41,-0.564 0.413,-0.51 0.413,-0.465C0.41,-0.458 0.406,-0.455 0.398,-0.455C0.38,-0.455 0.369,-0.457 0.368,-0.462C0.364,-0.494 0.35,-0.526 0.326,-0.555C0.303,-0.585 0.274,-0.6 0.239,-0.6C0.217,-0.6 0.198,-0.593 0.183,-0.579C0.168,-0.565 0.16,-0.544 0.16,-0.514C0.16,-0.501 0.163,-0.488 0.17,-0.476C0.176,-0.463 0.187,-0.451 0.203,-0.438C0.218,-0.424 0.23,-0.415 0.24,-0.408C0.25,-0.402 0.266,-0.391 0.288,-0.377C0.294,-0.373 0.299,-0.37 0.302,-0.368C0.307,-0.365 0.318,-0.358 0.334,-0.349C0.35,-0.339 0.362,-0.332 0.369,-0.327C0.375,-0.322 0.385,-0.314 0.397,-0.303C0.409,-0.292 0.418,-0.281 0.423,-0.27C0.429,-0.259 0.434,-0.245 0.438,-0.228C0.443,-0.211 0.445,-0.192 0.445,-0.171C0.445,-0.119 0.424,-0.076 0.381,-0.042C0.338,-0.007 0.288,0.01 0.232,0.01C0.181,0.01 0.119,0.001 0.047,-0.016C0.042,-0.036 0.037,-0.065 0.032,-0.101C0.027,-0.137 0.024,-0.163 0.024,-0.178C0.026,-0.184 0.032,-0.188 0.042,-0.188C0.062,-0.188 0.073,-0.186 0.073,-0.182C0.078,-0.152 0.095,-0.122 0.122,-0.091C0.149,-0.061 0.18,-0.046 0.213,-0.046C0.277,-0.046 0.31,-0.081 0.31,-0.152C0.31,-0.163 0.307,-0.174 0.301,-0.185C0.295,-0.196 0.286,-0.206 0.274,-0.217C0.263,-0.227 0.252,-0.236 0.243,-0.242C0.234,-0.249 0.221,-0.257 0.205,-0.268C0.188,-0.278 0.177,-0.285 0.173,-0.288C0.17,-0.29 0.165,-0.293 0.158,-0.298C0.137,-0.312 0.12,-0.324 0.109,-0.332C0.098,-0.34 0.085,-0.352 0.071,-0.367C0.056,-0.382 0.046,-0.399 0.04,-0.417C0.033,-0.434 0.03,-0.455 0.03,-0.478Z" style="fill:rgb(103,52,101);fill-rule:nonzero;"/>
        </g>
        <g transform="matrix(84.4612,0,0,69.8972,859.689,412.073)">
            <path d="M0.216,-0.645C0.26,-0.643 0.296,-0.642 0.323,-0.642C0.351,-0.642 0.386,-0.643 0.431,-0.645C0.475,-0.646 0.511,-0.647 0.538,-0.647C0.554,-0.647 0.577,-0.651 0.605,-0.658L0.624,-0.498C0.619,-0.493 0.61,-0.491 0.596,-0.491C0.59,-0.491 0.587,-0.493 0.586,-0.496C0.57,-0.561 0.535,-0.593 0.481,-0.593C0.429,-0.593 0.401,-0.587 0.398,-0.575C0.393,-0.557 0.391,-0.528 0.391,-0.488L0.391,-0.136C0.391,-0.103 0.393,-0.077 0.398,-0.057C0.4,-0.052 0.409,-0.047 0.425,-0.041C0.442,-0.035 0.453,-0.032 0.459,-0.032C0.462,-0.032 0.463,-0.026 0.463,-0.014C0.463,-0.006 0.462,-0 0.461,0.004C0.456,0.004 0.437,0.003 0.402,-0C0.368,-0.003 0.342,-0.004 0.325,-0.004C0.308,-0.004 0.282,-0.003 0.248,-0C0.214,0.002 0.193,0.003 0.184,0.004C0.181,0.001 0.18,-0.004 0.18,-0.012C0.18,-0.025 0.181,-0.032 0.183,-0.032C0.19,-0.032 0.202,-0.035 0.219,-0.041C0.236,-0.046 0.245,-0.051 0.247,-0.057C0.252,-0.074 0.254,-0.099 0.254,-0.132L0.254,-0.485C0.254,-0.536 0.251,-0.566 0.246,-0.575C0.244,-0.579 0.242,-0.582 0.241,-0.583C0.239,-0.585 0.232,-0.587 0.22,-0.589C0.207,-0.592 0.189,-0.593 0.166,-0.593C0.139,-0.593 0.118,-0.585 0.101,-0.571C0.084,-0.556 0.071,-0.532 0.062,-0.497C0.061,-0.494 0.058,-0.492 0.052,-0.492C0.037,-0.492 0.028,-0.494 0.023,-0.499L0.042,-0.658C0.071,-0.651 0.093,-0.647 0.109,-0.647C0.137,-0.647 0.172,-0.646 0.216,-0.645Z" style="fill:rgb(103,52,101);fill-rule:nonzero;"/>
        </g>
        <g transform="matrix(84.4612,0,0,69.8972,922.141,412.073)">
            <path d="M0.413,-0.032C0.427,-0.032 0.442,-0.035 0.457,-0.042C0.472,-0.048 0.479,-0.056 0.479,-0.066C0.479,-0.068 0.471,-0.09 0.455,-0.132L0.426,-0.203C0.423,-0.206 0.421,-0.207 0.419,-0.207C0.407,-0.208 0.375,-0.208 0.325,-0.208C0.282,-0.208 0.249,-0.208 0.227,-0.207C0.224,-0.207 0.222,-0.205 0.22,-0.202C0.22,-0.202 0.209,-0.177 0.188,-0.128C0.174,-0.099 0.168,-0.079 0.168,-0.068C0.168,-0.058 0.174,-0.05 0.186,-0.044C0.197,-0.038 0.208,-0.035 0.216,-0.034C0.225,-0.033 0.233,-0.032 0.239,-0.032C0.241,-0.032 0.242,-0.026 0.242,-0.017C0.242,-0.007 0.242,-0 0.24,0.004C0.232,0.003 0.215,0.002 0.189,-0C0.163,-0.003 0.142,-0.004 0.126,-0.004C0.11,-0.004 0.09,-0.003 0.067,-0C0.045,0.002 0.027,0.003 0.015,0.004C0.012,0.001 0.011,-0.004 0.011,-0.011C0.011,-0.024 0.011,-0.031 0.013,-0.031C0.021,-0.031 0.034,-0.035 0.052,-0.042C0.07,-0.048 0.081,-0.055 0.086,-0.063C0.091,-0.07 0.097,-0.08 0.102,-0.091C0.108,-0.103 0.112,-0.112 0.115,-0.119L0.12,-0.131L0.336,-0.627C0.343,-0.644 0.355,-0.652 0.372,-0.652C0.382,-0.652 0.39,-0.648 0.396,-0.64L0.596,-0.145C0.608,-0.115 0.619,-0.088 0.628,-0.064C0.632,-0.054 0.643,-0.046 0.66,-0.041C0.678,-0.035 0.691,-0.032 0.7,-0.032C0.703,-0.032 0.704,-0.027 0.704,-0.016C0.704,-0.005 0.703,0.002 0.702,0.004C0.7,0.004 0.68,0.003 0.642,-0C0.605,-0.003 0.577,-0.004 0.561,-0.004C0.556,-0.004 0.507,-0.001 0.413,0.004C0.41,0.001 0.409,-0.005 0.409,-0.016C0.409,-0.027 0.41,-0.032 0.413,-0.032ZM0.253,-0.27C0.272,-0.268 0.297,-0.267 0.325,-0.267C0.351,-0.267 0.374,-0.267 0.395,-0.269L0.397,-0.273L0.327,-0.448L0.251,-0.273C0.251,-0.271 0.252,-0.27 0.253,-0.27Z" style="fill:rgb(103,52,101);fill-rule:nonzero;"/>
        </g>
        <g transform="matrix(84.4612,0,0,69.8972,989.13,412.073)">
            <path d="M0.171,-0.641C0.184,-0.641 0.229,-0.643 0.308,-0.646C0.31,-0.641 0.311,-0.635 0.311,-0.629C0.311,-0.617 0.309,-0.61 0.307,-0.61C0.301,-0.61 0.289,-0.608 0.271,-0.602C0.254,-0.597 0.244,-0.591 0.243,-0.587C0.239,-0.569 0.236,-0.543 0.236,-0.509L0.236,-0.139C0.236,-0.107 0.239,-0.083 0.244,-0.068C0.247,-0.058 0.27,-0.053 0.311,-0.053L0.336,-0.053C0.376,-0.053 0.413,-0.061 0.445,-0.078C0.456,-0.084 0.469,-0.095 0.483,-0.111C0.497,-0.128 0.508,-0.146 0.516,-0.166C0.517,-0.17 0.521,-0.172 0.529,-0.172C0.545,-0.172 0.555,-0.17 0.559,-0.166C0.527,-0.076 0.509,-0.02 0.506,0.002C0.469,0.002 0.411,0.001 0.332,-0C0.253,-0.001 0.2,-0.002 0.172,-0.002L0.029,0.004C0.027,0.001 0.025,-0.004 0.025,-0.013C0.025,-0.026 0.027,-0.032 0.029,-0.032C0.037,-0.032 0.049,-0.035 0.066,-0.039C0.083,-0.044 0.092,-0.049 0.094,-0.054C0.098,-0.069 0.1,-0.097 0.1,-0.14L0.1,-0.513C0.1,-0.552 0.097,-0.577 0.092,-0.586C0.089,-0.591 0.079,-0.597 0.064,-0.602C0.049,-0.608 0.038,-0.61 0.031,-0.61C0.029,-0.61 0.027,-0.616 0.027,-0.627C0.027,-0.639 0.028,-0.645 0.029,-0.646C0.119,-0.643 0.166,-0.641 0.171,-0.641Z" style="fill:rgb(103,52,101);fill-rule:nonzero;"/>
        </g>
        <g transform="matrix(84.4612,0,0,69.8972,1046.06,412.073)">
            <path d="M0.171,-0.641C0.184,-0.641 0.229,-0.643 0.308,-0.646C0.31,-0.641 0.311,-0.635 0.311,-0.629C0.311,-0.617 0.309,-0.61 0.307,-0.61C0.301,-0.61 0.289,-0.608 0.271,-0.602C0.254,-0.597 0.244,-0.591 0.243,-0.587C0.239,-0.569 0.236,-0.543 0.236,-0.509L0.236,-0.139C0.236,-0.107 0.239,-0.083 0.244,-0.068C0.247,-0.058 0.27,-0.053 0.311,-0.053L0.336,-0.053C0.376,-0.053 0.413,-0.061 0.445,-0.078C0.456,-0.084 0.469,-0.095 0.483,-0.111C0.497,-0.128 0.508,-0.146 0.516,-0.166C0.517,-0.17 0.521,-0.172 0.529,-0.172C0.545,-0.172 0.555,-0.17 0.559,-0.166C0.527,-0.076 0.509,-0.02 0.506,0.002C0.469,0.002 0.411,0.001 0.332,-0C0.253,-0.001 0.2,-0.002 0.172,-0.002L0.029,0.004C0.027,0.001 0.025,-0.004 0.025,-0.013C0.025,-0.026 0.027,-0.032 0.029,-0.032C0.037,-0.032 0.049,-0.035 0.066,-0.039C0.083,-0.044 0.092,-0.049 0.094,-0.054C0.098,-0.069 0.1,-0.097 0.1,-0.14L0.1,-0.513C0.1,-0.552 0.097,-0.577 0.092,-0.586C0.089,-0.591 0.079,-0.597 0.064,-0.602C0.049,-0.608 0.038,-0.61 0.031,-0.61C0.029,-0.61 0.027,-0.616 0.027,-0.627C0.027,-0.639 0.028,-0.645 0.029,-0.646C0.119,-0.643 0.166,-0.641 0.171,-0.641Z" style="fill:rgb(103,52,101);fill-rule:nonzero;"/>
        </g>
        <g transform="matrix(84.4612,0,0,69.8972,1102.98,412.073)">
            <path d="M0.413,-0.032C0.427,-0.032 0.442,-0.035 0.457,-0.042C0.472,-0.048 0.479,-0.056 0.479,-0.066C0.479,-0.068 0.471,-0.09 0.455,-0.132L0.426,-0.203C0.423,-0.206 0.421,-0.207 0.419,-0.207C0.407,-0.208 0.375,-0.208 0.325,-0.208C0.282,-0.208 0.249,-0.208 0.227,-0.207C0.224,-0.207 0.222,-0.205 0.22,-0.202C0.22,-0.202 0.209,-0.177 0.188,-0.128C0.174,-0.099 0.168,-0.079 0.168,-0.068C0.168,-0.058 0.174,-0.05 0.186,-0.044C0.197,-0.038 0.208,-0.035 0.216,-0.034C0.225,-0.033 0.233,-0.032 0.239,-0.032C0.241,-0.032 0.242,-0.026 0.242,-0.017C0.242,-0.007 0.242,-0 0.24,0.004C0.232,0.003 0.215,0.002 0.189,-0C0.163,-0.003 0.142,-0.004 0.126,-0.004C0.11,-0.004 0.09,-0.003 0.067,-0C0.045,0.002 0.027,0.003 0.015,0.004C0.012,0.001 0.011,-0.004 0.011,-0.011C0.011,-0.024 0.011,-0.031 0.013,-0.031C0.021,-0.031 0.034,-0.035 0.052,-0.042C0.07,-0.048 0.081,-0.055 0.086,-0.063C0.091,-0.07 0.097,-0.08 0.102,-0.091C0.108,-0.103 0.112,-0.112 0.115,-0.119L0.12,-0.131L0.336,-0.627C0.343,-0.644 0.355,-0.652 0.372,-0.652C0.382,-0.652 0.39,-0.648 0.396,-0.64L0.596,-0.145C0.608,-0.115 0.619,-0.088 0.628,-0.064C0.632,-0.054 0.643,-0.046 0.66,-0.041C0.678,-0.035 0.691,-0.032 0.7,-0.032C0.703,-0.032 0.704,-0.027 0.704,-0.016C0.704,-0.005 0.703,0.002 0.702,0.004C0.7,0.004 0.68,0.003 0.642,-0C0.605,-0.003 0.577,-0.004 0.561,-0.004C0.556,-0.004 0.507,-0.001 0.413,0.004C0.41,0.001 0.409,-0.005 0.409,-0.016C0.409,-0.027 0.41,-0.032 0.413,-0.032ZM0.253,-0.27C0.272,-0.268 0.297,-0.267 0.325,-0.267C0.351,-0.267 0.374,-0.267 0.395,-0.269L0.397,-0.273L0.327,-0.448L0.251,-0.273C0.251,-0.271 0.252,-0.27 0.253,-0.27Z" style="fill:rgb(103,52,101);fill-rule:nonzero;"/>
        </g>
        <g transform="matrix(84.4612,0,0,69.8972,1169.97,412.073)">
            <path d="M0.294,-0.591C0.271,-0.591 0.256,-0.588 0.249,-0.583C0.242,-0.578 0.238,-0.546 0.237,-0.487L0.237,-0.382C0.237,-0.372 0.238,-0.364 0.241,-0.358C0.243,-0.353 0.246,-0.348 0.251,-0.346C0.256,-0.343 0.26,-0.341 0.264,-0.341C0.268,-0.34 0.272,-0.34 0.278,-0.34L0.305,-0.34C0.33,-0.34 0.35,-0.351 0.364,-0.373C0.378,-0.395 0.385,-0.424 0.385,-0.461C0.385,-0.548 0.354,-0.591 0.294,-0.591ZM0.309,-0.645C0.331,-0.645 0.354,-0.642 0.378,-0.636C0.402,-0.631 0.426,-0.622 0.45,-0.61C0.474,-0.599 0.494,-0.582 0.51,-0.559C0.525,-0.537 0.533,-0.51 0.533,-0.48C0.533,-0.437 0.521,-0.399 0.495,-0.366C0.47,-0.334 0.442,-0.313 0.413,-0.303C0.408,-0.301 0.407,-0.297 0.41,-0.292C0.424,-0.268 0.437,-0.248 0.447,-0.232C0.457,-0.216 0.469,-0.198 0.483,-0.179C0.497,-0.16 0.508,-0.144 0.517,-0.132C0.533,-0.108 0.554,-0.085 0.581,-0.064C0.607,-0.043 0.632,-0.032 0.657,-0.032C0.66,-0.029 0.661,-0.023 0.661,-0.015C0.661,-0.007 0.66,-0.001 0.657,0.005C0.648,0.006 0.637,0.007 0.623,0.007C0.591,0.007 0.562,0.004 0.536,-0.002C0.509,-0.009 0.488,-0.016 0.472,-0.023C0.456,-0.031 0.44,-0.043 0.424,-0.059C0.408,-0.074 0.396,-0.087 0.389,-0.098C0.381,-0.108 0.37,-0.123 0.357,-0.144C0.351,-0.154 0.342,-0.167 0.332,-0.184C0.322,-0.2 0.313,-0.213 0.307,-0.222C0.301,-0.232 0.294,-0.242 0.287,-0.252C0.28,-0.262 0.274,-0.27 0.269,-0.275C0.264,-0.281 0.26,-0.284 0.257,-0.285C0.255,-0.286 0.251,-0.286 0.246,-0.286C0.24,-0.286 0.237,-0.281 0.237,-0.271L0.237,-0.138C0.237,-0.104 0.24,-0.078 0.244,-0.058C0.246,-0.05 0.257,-0.044 0.276,-0.039C0.296,-0.035 0.311,-0.032 0.32,-0.032C0.323,-0.032 0.324,-0.026 0.324,-0.014C0.324,-0.006 0.324,-0 0.322,0.004C0.244,-0 0.194,-0.002 0.173,-0.002L0.03,0.004C0.028,0.001 0.026,-0.004 0.026,-0.013C0.026,-0.026 0.028,-0.032 0.03,-0.032C0.038,-0.032 0.05,-0.035 0.067,-0.039C0.083,-0.044 0.093,-0.049 0.095,-0.054C0.099,-0.069 0.101,-0.097 0.101,-0.14L0.101,-0.509C0.101,-0.545 0.099,-0.57 0.095,-0.585C0.093,-0.59 0.083,-0.596 0.066,-0.603C0.049,-0.609 0.036,-0.612 0.029,-0.612C0.027,-0.612 0.025,-0.618 0.025,-0.63C0.025,-0.64 0.026,-0.646 0.028,-0.648C0.088,-0.645 0.136,-0.644 0.172,-0.644C0.189,-0.644 0.212,-0.644 0.239,-0.644C0.266,-0.644 0.289,-0.645 0.309,-0.645Z" style="fill:rgb(103,52,101);fill-rule:nonzero;"/>
        </g>
        <g transform="matrix(84.4612,0,0,69.8972,1236.05,412.073)">
            <path d="M0.172,-0.644L0.342,-0.644C0.448,-0.644 0.531,-0.612 0.591,-0.549C0.651,-0.486 0.681,-0.413 0.681,-0.328C0.681,-0.234 0.65,-0.156 0.59,-0.092C0.529,-0.029 0.446,0.003 0.341,0.003C0.328,0.003 0.303,0.002 0.265,0C0.226,-0.001 0.196,-0.002 0.173,-0.002L0.03,0.004C0.028,0.001 0.026,-0.004 0.026,-0.013C0.026,-0.026 0.028,-0.032 0.03,-0.032C0.038,-0.032 0.05,-0.035 0.067,-0.039C0.083,-0.044 0.093,-0.049 0.095,-0.054C0.099,-0.069 0.101,-0.097 0.101,-0.14L0.101,-0.509C0.101,-0.545 0.099,-0.57 0.095,-0.585C0.093,-0.59 0.083,-0.596 0.066,-0.603C0.049,-0.609 0.036,-0.612 0.029,-0.612C0.027,-0.612 0.025,-0.618 0.025,-0.63C0.025,-0.64 0.026,-0.646 0.028,-0.648C0.08,-0.645 0.128,-0.644 0.172,-0.644ZM0.237,-0.512L0.237,-0.133C0.237,-0.09 0.24,-0.068 0.246,-0.064C0.26,-0.056 0.297,-0.052 0.356,-0.052C0.411,-0.052 0.453,-0.075 0.483,-0.122C0.513,-0.169 0.528,-0.239 0.528,-0.332C0.528,-0.404 0.513,-0.464 0.481,-0.514C0.449,-0.564 0.406,-0.589 0.35,-0.589L0.345,-0.589C0.289,-0.589 0.258,-0.584 0.25,-0.573C0.242,-0.562 0.237,-0.541 0.237,-0.512Z" style="fill:rgb(103,52,101);fill-rule:nonzero;"/>
        </g>
        <g transform="matrix(84.4612,0,0,69.8972,1328.21,412.073)">
            <path d="M0.171,-0.641C0.184,-0.641 0.229,-0.643 0.308,-0.646C0.31,-0.641 0.311,-0.635 0.311,-0.629C0.311,-0.617 0.309,-0.61 0.307,-0.61C0.301,-0.61 0.289,-0.608 0.271,-0.602C0.254,-0.597 0.244,-0.591 0.243,-0.587C0.239,-0.569 0.236,-0.543 0.236,-0.509L0.236,-0.139C0.236,-0.107 0.239,-0.083 0.244,-0.068C0.247,-0.058 0.27,-0.053 0.311,-0.053L0.336,-0.053C0.376,-0.053 0.413,-0.061 0.445,-0.078C0.456,-0.084 0.469,-0.095 0.483,-0.111C0.497,-0.128 0.508,-0.146 0.516,-0.166C0.517,-0.17 0.521,-0.172 0.529,-0.172C0.545,-0.172 0.555,-0.17 0.559,-0.166C0.527,-0.076 0.509,-0.02 0.506,0.002C0.469,0.002 0.411,0.001 0.332,-0C0.253,-0.001 0.2,-0.002 0.172,-0.002L0.029,0.004C0.027,0.001 0.025,-0.004 0.025,-0.013C0.025,-0.026 0.027,-0.032 0.029,-0.032C0.037,-0.032 0.049,-0.035 0.066,-0.039C0.083,-0.044 0.092,-0.049 0.094,-0.054C0.098,-0.069 0.1,-0.097 0.1,-0.14L0.1,-0.513C0.1,-0.552 0.097,-0.577 0.092,-0.586C0.089,-0.591 0.079,-0.597 0.064,-0.602C0.049,-0.608 0.038,-0.61 0.031,-0.61C0.029,-0.61 0.027,-0.616 0.027,-0.627C0.027,-0.639 0.028,-0.645 0.029,-0.646C0.119,-0.643 0.166,-0.641 0.171,-0.641Z" style="fill:rgb(103,52,101);fill-rule:nonzero;"/>
        </g>
        <g transform="matrix(84.4612,0,0,69.8972,1385.13,412.073)">
            <path d="M0.171,-0.641C0.184,-0.641 0.229,-0.643 0.308,-0.646C0.31,-0.641 0.311,-0.635 0.311,-0.629C0.311,-0.617 0.309,-0.61 0.307,-0.61C0.301,-0.61 0.289,-0.608 0.271,-0.602C0.254,-0.597 0.244,-0.591 0.243,-0.587C0.239,-0.569 0.236,-0.543 0.236,-0.509L0.236,-0.139C0.236,-0.107 0.239,-0.083 0.244,-0.068C0.247,-0.058 0.27,-0.053 0.311,-0.053L0.336,-0.053C0.376,-0.053 0.413,-0.061 0.445,-0.078C0.456,-0.084 0.469,-0.095 0.483,-0.111C0.497,-0.128 0.508,-0.146 0.516,-0.166C0.517,-0.17 0.521,-0.172 0.529,-0.172C0.545,-0.172 0.555,-0.17 0.559,-0.166C0.527,-0.076 0.509,-0.02 0.506,0.002C0.469,0.002 0.411,0.001 0.332,-0C0.253,-0.001 0.2,-0.002 0.172,-0.002L0.029,0.004C0.027,0.001 0.025,-0.004 0.025,-0.013C0.025,-0.026 0.027,-0.032 0.029,-0.032C0.037,-0.032 0.049,-0.035 0.066,-0.039C0.083,-0.044 0.092,-0.049 0.094,-0.054C0.098,-0.069 0.1,-0.097 0.1,-0.14L0.1,-0.513C0.1,-0.552 0.097,-0.577 0.092,-0.586C0.089,-0.591 0.079,-0.597 0.064,-0.602C0.049,-0.608 0.038,-0.61 0.031,-0.61C0.029,-0.61 0.027,-0.616 0.027,-0.627C0.027,-0.639 0.028,-0.645 0.029,-0.646C0.119,-0.643 0.166,-0.641 0.171,-0.641Z" style="fill:rgb(103,52,101);fill-rule:nonzero;"/>
        </g>
        <g transform="matrix(84.4612,0,0,69.8972,1442.06,412.073)">
            <path d="M0.172,-0.644C0.191,-0.644 0.211,-0.644 0.234,-0.645C0.256,-0.646 0.277,-0.646 0.297,-0.646C0.335,-0.646 0.371,-0.641 0.405,-0.631C0.439,-0.62 0.469,-0.601 0.494,-0.573C0.52,-0.544 0.532,-0.509 0.532,-0.468C0.532,-0.415 0.512,-0.369 0.471,-0.331C0.431,-0.293 0.381,-0.273 0.323,-0.273C0.313,-0.273 0.302,-0.275 0.292,-0.278C0.282,-0.282 0.274,-0.285 0.269,-0.288C0.263,-0.291 0.26,-0.293 0.259,-0.295C0.256,-0.299 0.255,-0.306 0.254,-0.316C0.253,-0.327 0.255,-0.332 0.258,-0.332C0.266,-0.327 0.281,-0.324 0.302,-0.324C0.356,-0.324 0.384,-0.368 0.384,-0.457C0.384,-0.546 0.354,-0.591 0.294,-0.591C0.271,-0.591 0.256,-0.588 0.249,-0.583C0.241,-0.577 0.237,-0.545 0.237,-0.487L0.237,-0.138C0.237,-0.104 0.24,-0.078 0.244,-0.058C0.246,-0.05 0.257,-0.044 0.276,-0.039C0.296,-0.035 0.311,-0.032 0.32,-0.032C0.323,-0.032 0.324,-0.026 0.324,-0.014C0.324,-0.006 0.324,-0 0.322,0.004C0.244,-0 0.194,-0.002 0.173,-0.002L0.03,0.004C0.028,0.001 0.026,-0.004 0.026,-0.013C0.026,-0.026 0.028,-0.032 0.03,-0.032C0.038,-0.032 0.05,-0.035 0.067,-0.039C0.083,-0.044 0.093,-0.049 0.095,-0.054C0.099,-0.069 0.101,-0.097 0.101,-0.14L0.101,-0.509C0.101,-0.545 0.099,-0.57 0.095,-0.585C0.093,-0.59 0.083,-0.596 0.066,-0.603C0.049,-0.609 0.036,-0.612 0.029,-0.612C0.027,-0.612 0.025,-0.618 0.025,-0.63C0.025,-0.64 0.026,-0.646 0.028,-0.648C0.087,-0.645 0.135,-0.644 0.172,-0.644Z" style="fill:rgb(103,52,101);fill-rule:nonzero;"/>
        </g>
    </g>
</svg>
